# xmcd
# 
# Track frame offsets:
#     150
#     17375
#     36547
#     52277
#     65957
#     91055
#     107075
#     126507
#     140440
#     153800
#     167537
#     186555
#     206380
#     229827
#     244352
#     262087
# 
# Disc length: 3984
# 
# Revision: 4
# Processed by: cddbd v1.5.2PL0 Copyright (c) Steve Scherf et al.
# Submitted via: fre:ac v1.1beta1pre4
# 
DISCID=ee0f8e10
DTITLE=ZZ Top - Mescalero
DYEAR=2003
DGENRE=Rock
TTITLE0=Mescalero
TTITLE1=Two Ways To Play
TTITLE2=Alley-Gator
TTITLE3=Buck Nekkid
TTITLE4=Goin' So Good
TTITLE5=Me So Stupid
TTITLE6=Piece
TTITLE7=Punk Ass Boyfriend
TTITLE8=Stackin' Paper
TTITLE9=What Would You Do
TTITLE10=What It Is Kid
TTITLE11=Que Lastima
TTITLE12=Tramp
TTITLE13=Crunchy
TTITLE14=Dusted
TTITLE15=Liquor
EXTD=LABEL =Lone Wolf Production Company\nID =8287651168-2\nUPC =none\nCOPYRIGHT =2003
EXTT0=
EXTT1=
EXTT2=
EXTT3=
EXTT4=
EXTT5=
EXTT6=
EXTT7=
EXTT8=
EXTT9=
EXTT10=
EXTT11=
EXTT12=
EXTT13=
EXTT14=
EXTT15=
PLAYORDER=
